<svg xmlns="http://www.w3.org/2000/svg" width="1280" height="640" viewBox="0 0 1280 640" role="img" aria-labelledby="title desc">
<title id="title">BagelSkills</title><desc id="desc">Ten powerful Agent Skills arranged around a bagel</desc>
<defs><linearGradient id="bg" x1="0" y1="0" x2="1" y2="1"><stop stop-color="#090b16"/><stop offset="1" stop-color="#17112d"/></linearGradient><linearGradient id="bagel" x1="0" y1="0" x2="1" y2="1"><stop stop-color="#f6c66f"/><stop offset=".52" stop-color="#d98b35"/><stop offset="1" stop-color="#8d481f"/></linearGradient><filter id="glow"><feGaussianBlur stdDeviation="14"/></filter></defs>
<rect width="1280" height="640" rx="34" fill="url(#bg)"/><circle cx="1075" cy="90" r="180" fill="#7657ff" opacity=".12" filter="url(#glow)"/><circle cx="110" cy="600" r="220" fill="#f6a84f" opacity=".08" filter="url(#glow)"/>
<g transform="translate(155 126)"><circle cx="190" cy="190" r="145" fill="#4c2e19" opacity=".45" transform="translate(0 16)"/><circle cx="190" cy="190" r="145" fill="url(#bagel)"/><circle cx="190" cy="190" r="55" fill="#0e0d1c"/><ellipse cx="155" cy="105" rx="69" ry="25" fill="#fff1bf" opacity=".2" transform="rotate(-24 155 105)"/>
<g fill="#fff6dd"><ellipse cx="115" cy="105" rx="4" ry="11" transform="rotate(-35 115 105)"/><ellipse cx="190" cy="73" rx="4" ry="11" transform="rotate(25 190 73)"/><ellipse cx="255" cy="98" rx="4" ry="11" transform="rotate(55 255 98)"/><ellipse cx="290" cy="160" rx="4" ry="11" transform="rotate(75 290 160)"/><ellipse cx="275" cy="245" rx="4" ry="11" transform="rotate(25 275 245)"/><ellipse cx="220" cy="290" rx="4" ry="11" transform="rotate(70 220 290)"/><ellipse cx="135" cy="280" rx="4" ry="11" transform="rotate(20 135 280)"/><ellipse cx="83" cy="220" rx="4" ry="11" transform="rotate(65 83 220)"/><ellipse cx="75" cy="150" rx="4" ry="11" transform="rotate(15 75 150)"/><ellipse cx="165" cy="235" rx="4" ry="11" transform="rotate(55 165 235)"/></g></g>
<g font-family="Inter, ui-sans-serif, system-ui" fill="#fff"><text x="555" y="240" font-size="86" font-weight="800" letter-spacing="-4">BagelSkills</text><text x="560" y="302" font-size="28" fill="#c9c4df">10 powerful skills. Zero prompt slop.</text><g transform="translate(560 366)" font-size="18" font-weight="650"><rect width="210" height="44" rx="22" fill="#7657ff"/><text x="25" y="29">OPEN AGENT SKILLS</text><rect x="228" width="152" height="44" rx="22" fill="#ffffff" opacity=".1"/><text x="253" y="29">SPEC READY</text></g></g>
</svg>
